<mxfile host="Electron" agent="Mozilla/5.0 (Macintosh; Intel Mac OS X 10_15_7) AppleWebKit/537.36 (KHTML, like Gecko) draw.io/25.0.2 Chrome/128.0.6613.186 Electron/32.2.5 Safari/537.36" version="25.0.2">
  <diagram name="ページ1" id="RzE77F1huVSBpnxGkCJ2">
    <mxGraphModel dx="555" dy="417" grid="1" gridSize="10" guides="1" tooltips="1" connect="1" arrows="1" fold="1" page="1" pageScale="1" pageWidth="827" pageHeight="1169" math="0" shadow="0">
      <root>
        <mxCell id="0" />
        <mxCell id="1" parent="0" />
        <mxCell id="T6TI70inciwouYz3PxtK-11" style="edgeStyle=orthogonalEdgeStyle;rounded=0;orthogonalLoop=1;jettySize=auto;html=1;exitX=0;exitY=0.7;exitDx=0;exitDy=0;exitPerimeter=0;endArrow=none;endFill=0;" edge="1" parent="1" source="T6TI70inciwouYz3PxtK-1" target="T6TI70inciwouYz3PxtK-10">
          <mxGeometry relative="1" as="geometry" />
        </mxCell>
        <mxCell id="T6TI70inciwouYz3PxtK-13" style="edgeStyle=orthogonalEdgeStyle;rounded=0;orthogonalLoop=1;jettySize=auto;html=1;exitX=0.5;exitY=0;exitDx=0;exitDy=0;exitPerimeter=0;endArrow=none;endFill=0;" edge="1" parent="1" source="T6TI70inciwouYz3PxtK-3">
          <mxGeometry relative="1" as="geometry">
            <mxPoint x="100" y="300" as="targetPoint" />
            <Array as="points">
              <mxPoint x="480" y="300" />
              <mxPoint x="110" y="300" />
            </Array>
          </mxGeometry>
        </mxCell>
        <mxCell id="T6TI70inciwouYz3PxtK-15" style="edgeStyle=orthogonalEdgeStyle;rounded=0;orthogonalLoop=1;jettySize=auto;html=1;exitX=0.5;exitY=0;exitDx=0;exitDy=0;exitPerimeter=0;endArrow=oval;endFill=1;" edge="1" parent="1" source="T6TI70inciwouYz3PxtK-1">
          <mxGeometry relative="1" as="geometry">
            <mxPoint x="220" y="300" as="targetPoint" />
          </mxGeometry>
        </mxCell>
        <mxCell id="T6TI70inciwouYz3PxtK-20" style="edgeStyle=orthogonalEdgeStyle;rounded=0;orthogonalLoop=1;jettySize=auto;html=1;exitX=0.5;exitY=1;exitDx=0;exitDy=0;exitPerimeter=0;endArrow=oval;endFill=1;" edge="1" parent="1" source="T6TI70inciwouYz3PxtK-1">
          <mxGeometry relative="1" as="geometry">
            <mxPoint x="220.16981132075477" y="420" as="targetPoint" />
          </mxGeometry>
        </mxCell>
        <mxCell id="T6TI70inciwouYz3PxtK-24" style="edgeStyle=orthogonalEdgeStyle;rounded=0;orthogonalLoop=1;jettySize=auto;html=1;exitX=1;exitY=0.3;exitDx=0;exitDy=0;exitPerimeter=0;endArrow=none;endFill=0;" edge="1" parent="1" source="T6TI70inciwouYz3PxtK-1">
          <mxGeometry relative="1" as="geometry">
            <mxPoint x="269.9767441860465" y="270" as="targetPoint" />
            <Array as="points">
              <mxPoint x="270" y="320" />
              <mxPoint x="270" y="320" />
            </Array>
          </mxGeometry>
        </mxCell>
        <mxCell id="T6TI70inciwouYz3PxtK-1" value="" style="verticalLabelPosition=bottom;shadow=0;dashed=0;align=center;html=1;verticalAlign=top;shape=stencil(zVfLcsIgFP2aLOskoZq47KS66qJqfwAjVUYCmYT6+PuSoI5goIS46Iw6w73JOYfLfWAAsnoHSxTEIaxLlPMAvAdxfIAVhmsizLHw7KQxCkO5prBA0iS+4de5fX25Ej9zgsuXOWGlfLDmFdujI97wCwSmO1RhLr1HBRbMgvBNWJsPyHJGqVCDGa0Vz51fgENMua6nQS4FSYE4qqT1IvukrM6X1QjIdRDP+zDNPJgSL6aFA1P0lD0tKNp6kPlta+USwNFY5fJiWnowRd1MIBMWU26CbA3z/bZiP3TTqa9q6utWTmmolMFEFaQlT2TYeivIQAuyb1Yhi55vTIgsUUtQS9gU74Pj6i7YAZkyHljP64pAMEXGfbtB2EQkw0W4Qagi0uGhuPXbAbFIhwdDl+ETjUTtGZNxfxnJ1ANCVaEdq48K4BMLe3J5bGSsQniI0BBM7aWHiOkzVHjIeAUqhnX0GWQkHhCaCu1QrTOxW8WkD0Tb9w2tWVzp/mrqHJ2aSQQJ3lJJlyPajMbrtU25Th3unlszzlmhjip1dAJrQjtzL5y4k//DbS9kZ+7PpRO5Vjrxc8izDy/2dNrN3mbpwyWktcp/Ha3hFw==);" vertex="1" parent="1">
          <mxGeometry x="170" y="310" width="100" height="100" as="geometry" />
        </mxCell>
        <mxCell id="T6TI70inciwouYz3PxtK-7" style="edgeStyle=orthogonalEdgeStyle;rounded=0;orthogonalLoop=1;jettySize=auto;html=1;exitX=0;exitY=0.7;exitDx=0;exitDy=0;exitPerimeter=0;endArrow=none;endFill=0;" edge="1" parent="1" source="T6TI70inciwouYz3PxtK-2">
          <mxGeometry relative="1" as="geometry">
            <mxPoint x="270" y="379.8974358974359" as="targetPoint" />
          </mxGeometry>
        </mxCell>
        <mxCell id="T6TI70inciwouYz3PxtK-16" style="edgeStyle=orthogonalEdgeStyle;rounded=0;orthogonalLoop=1;jettySize=auto;html=1;exitX=0.5;exitY=0;exitDx=0;exitDy=0;exitPerimeter=0;endArrow=oval;endFill=1;" edge="1" parent="1" source="T6TI70inciwouYz3PxtK-2">
          <mxGeometry relative="1" as="geometry">
            <mxPoint x="350" y="300" as="targetPoint" />
          </mxGeometry>
        </mxCell>
        <mxCell id="T6TI70inciwouYz3PxtK-21" style="edgeStyle=orthogonalEdgeStyle;rounded=0;orthogonalLoop=1;jettySize=auto;html=1;exitX=0.5;exitY=1;exitDx=0;exitDy=0;exitPerimeter=0;endArrow=oval;endFill=1;" edge="1" parent="1" source="T6TI70inciwouYz3PxtK-2">
          <mxGeometry relative="1" as="geometry">
            <mxPoint x="349.9811320754717" y="420" as="targetPoint" />
          </mxGeometry>
        </mxCell>
        <mxCell id="T6TI70inciwouYz3PxtK-25" style="edgeStyle=orthogonalEdgeStyle;rounded=0;orthogonalLoop=1;jettySize=auto;html=1;exitX=1;exitY=0.3;exitDx=0;exitDy=0;exitPerimeter=0;endArrow=none;endFill=0;" edge="1" parent="1" source="T6TI70inciwouYz3PxtK-2">
          <mxGeometry relative="1" as="geometry">
            <mxPoint x="400.20930232558146" y="270" as="targetPoint" />
            <Array as="points">
              <mxPoint x="400" y="320" />
              <mxPoint x="400" y="320" />
            </Array>
          </mxGeometry>
        </mxCell>
        <mxCell id="T6TI70inciwouYz3PxtK-2" value="" style="verticalLabelPosition=bottom;shadow=0;dashed=0;align=center;html=1;verticalAlign=top;shape=stencil(zVfLcsIgFP2aLOskoZq47KS66qJqfwAjVUYCmYT6+PuSoI5goIS46Iw6w73JOYfLfWAAsnoHSxTEIaxLlPMAvAdxfIAVhmsizLHw7KQxCkO5prBA0iS+4de5fX25Ej9zgsuXOWGlfLDmFdujI97wCwSmO1RhLr1HBRbMgvBNWJsPyHJGqVCDGa0Vz51fgENMua6nQS4FSYE4qqT1IvukrM6X1QjIdRDP+zDNPJgSL6aFA1P0lD0tKNp6kPlta+USwNFY5fJiWnowRd1MIBMWU26CbA3z/bZiP3TTqa9q6utWTmmolMFEFaQlT2TYeivIQAuyb1Yhi55vTIgsUUtQS9gU74Pj6i7YAZkyHljP64pAMEXGfbtB2EQkw0W4Qagi0uGhuPXbAbFIhwdDl+ETjUTtGZNxfxnJ1ANCVaEdq48K4BMLe3J5bGSsQniI0BBM7aWHiOkzVHjIeAUqhnX0GWQkHhCaCu1QrTOxW8WkD0Tb9w2tWVzp/mrqHJ2aSQQJ3lJJlyPajMbrtU25Th3unlszzlmhjip1dAJrQjtzL5y4k//DbS9kZ+7PpRO5Vjrxc8izDy/2dNrN3mbpwyWktcp/Ha3hFw==);" vertex="1" parent="1">
          <mxGeometry x="300" y="310" width="100" height="100" as="geometry" />
        </mxCell>
        <mxCell id="T6TI70inciwouYz3PxtK-8" style="edgeStyle=orthogonalEdgeStyle;rounded=0;orthogonalLoop=1;jettySize=auto;html=1;exitX=0;exitY=0.7;exitDx=0;exitDy=0;exitPerimeter=0;endArrow=none;endFill=0;" edge="1" parent="1" source="T6TI70inciwouYz3PxtK-3">
          <mxGeometry relative="1" as="geometry">
            <mxPoint x="400" y="379.8974358974359" as="targetPoint" />
          </mxGeometry>
        </mxCell>
        <mxCell id="T6TI70inciwouYz3PxtK-22" style="edgeStyle=orthogonalEdgeStyle;rounded=0;orthogonalLoop=1;jettySize=auto;html=1;exitX=0.5;exitY=1;exitDx=0;exitDy=0;exitPerimeter=0;endArrow=none;endFill=0;" edge="1" parent="1" source="T6TI70inciwouYz3PxtK-3">
          <mxGeometry relative="1" as="geometry">
            <mxPoint x="100" y="420" as="targetPoint" />
            <Array as="points">
              <mxPoint x="480" y="420" />
            </Array>
          </mxGeometry>
        </mxCell>
        <mxCell id="T6TI70inciwouYz3PxtK-23" style="edgeStyle=orthogonalEdgeStyle;rounded=0;orthogonalLoop=1;jettySize=auto;html=1;exitX=1;exitY=0.7;exitDx=0;exitDy=0;exitPerimeter=0;endArrow=none;endFill=0;" edge="1" parent="1" source="T6TI70inciwouYz3PxtK-3">
          <mxGeometry relative="1" as="geometry">
            <mxPoint x="539.9999999999999" y="380.06976744186045" as="targetPoint" />
          </mxGeometry>
        </mxCell>
        <mxCell id="T6TI70inciwouYz3PxtK-26" style="edgeStyle=orthogonalEdgeStyle;rounded=0;orthogonalLoop=1;jettySize=auto;html=1;exitX=1;exitY=0.3;exitDx=0;exitDy=0;exitPerimeter=0;endArrow=none;endFill=0;" edge="1" parent="1" source="T6TI70inciwouYz3PxtK-3">
          <mxGeometry relative="1" as="geometry">
            <mxPoint x="529.9767441860465" y="270" as="targetPoint" />
            <Array as="points">
              <mxPoint x="530" y="320" />
              <mxPoint x="530" y="320" />
            </Array>
          </mxGeometry>
        </mxCell>
        <mxCell id="T6TI70inciwouYz3PxtK-3" value="" style="verticalLabelPosition=bottom;shadow=0;dashed=0;align=center;html=1;verticalAlign=top;shape=stencil(zVfLcsIgFP2aLOskoZq47KS66qJqfwAjVUYCmYT6+PuSoI5goIS46Iw6w73JOYfLfWAAsnoHSxTEIaxLlPMAvAdxfIAVhmsizLHw7KQxCkO5prBA0iS+4de5fX25Ej9zgsuXOWGlfLDmFdujI97wCwSmO1RhLr1HBRbMgvBNWJsPyHJGqVCDGa0Vz51fgENMua6nQS4FSYE4qqT1IvukrM6X1QjIdRDP+zDNPJgSL6aFA1P0lD0tKNp6kPlta+USwNFY5fJiWnowRd1MIBMWU26CbA3z/bZiP3TTqa9q6utWTmmolMFEFaQlT2TYeivIQAuyb1Yhi55vTIgsUUtQS9gU74Pj6i7YAZkyHljP64pAMEXGfbtB2EQkw0W4Qagi0uGhuPXbAbFIhwdDl+ETjUTtGZNxfxnJ1ANCVaEdq48K4BMLe3J5bGSsQniI0BBM7aWHiOkzVHjIeAUqhnX0GWQkHhCaCu1QrTOxW8WkD0Tb9w2tWVzp/mrqHJ2aSQQJ3lJJlyPajMbrtU25Th3unlszzlmhjip1dAJrQjtzL5y4k//DbS9kZ+7PpRO5Vjrxc8izDy/2dNrN3mbpwyWktcp/Ha3hFw==);" vertex="1" parent="1">
          <mxGeometry x="430" y="310" width="100" height="100" as="geometry" />
        </mxCell>
        <mxCell id="T6TI70inciwouYz3PxtK-4" style="edgeStyle=orthogonalEdgeStyle;rounded=0;orthogonalLoop=1;jettySize=auto;html=1;exitX=0;exitY=0.3;exitDx=0;exitDy=0;exitPerimeter=0;endArrow=oval;endFill=1;" edge="1" parent="1" source="T6TI70inciwouYz3PxtK-1">
          <mxGeometry relative="1" as="geometry">
            <mxPoint x="280" y="380" as="targetPoint" />
            <Array as="points">
              <mxPoint x="160" y="340" />
              <mxPoint x="160" y="290" />
              <mxPoint x="280" y="290" />
              <mxPoint x="280" y="380" />
            </Array>
          </mxGeometry>
        </mxCell>
        <mxCell id="T6TI70inciwouYz3PxtK-5" style="edgeStyle=orthogonalEdgeStyle;rounded=0;orthogonalLoop=1;jettySize=auto;html=1;exitX=0;exitY=0.3;exitDx=0;exitDy=0;exitPerimeter=0;endArrow=oval;endFill=1;" edge="1" parent="1" source="T6TI70inciwouYz3PxtK-2">
          <mxGeometry relative="1" as="geometry">
            <mxPoint x="410" y="380" as="targetPoint" />
            <Array as="points">
              <mxPoint x="290" y="340" />
              <mxPoint x="290" y="290" />
              <mxPoint x="410" y="290" />
              <mxPoint x="410" y="380" />
            </Array>
          </mxGeometry>
        </mxCell>
        <mxCell id="T6TI70inciwouYz3PxtK-6" style="edgeStyle=orthogonalEdgeStyle;rounded=0;orthogonalLoop=1;jettySize=auto;html=1;exitX=0;exitY=0.3;exitDx=0;exitDy=0;exitPerimeter=0;endArrow=oval;endFill=1;" edge="1" parent="1" source="T6TI70inciwouYz3PxtK-3">
          <mxGeometry relative="1" as="geometry">
            <mxPoint x="540" y="380" as="targetPoint" />
            <Array as="points">
              <mxPoint x="420" y="340" />
              <mxPoint x="420" y="290" />
              <mxPoint x="540" y="290" />
            </Array>
          </mxGeometry>
        </mxCell>
        <mxCell id="T6TI70inciwouYz3PxtK-10" value="CLK" style="text;html=1;align=center;verticalAlign=middle;resizable=0;points=[];autosize=1;strokeColor=none;fillColor=none;" vertex="1" parent="1">
          <mxGeometry x="120" y="450" width="50" height="30" as="geometry" />
        </mxCell>
        <mxCell id="T6TI70inciwouYz3PxtK-27" value="Q0" style="text;html=1;align=center;verticalAlign=middle;resizable=0;points=[];autosize=1;strokeColor=none;fillColor=none;" vertex="1" parent="1">
          <mxGeometry x="250" y="248" width="40" height="30" as="geometry" />
        </mxCell>
        <mxCell id="T6TI70inciwouYz3PxtK-28" value="Q1" style="text;html=1;align=center;verticalAlign=middle;resizable=0;points=[];autosize=1;strokeColor=none;fillColor=none;" vertex="1" parent="1">
          <mxGeometry x="380" y="248" width="40" height="30" as="geometry" />
        </mxCell>
        <mxCell id="T6TI70inciwouYz3PxtK-29" value="Q2" style="text;html=1;align=center;verticalAlign=middle;resizable=0;points=[];autosize=1;strokeColor=none;fillColor=none;" vertex="1" parent="1">
          <mxGeometry x="510" y="248" width="40" height="30" as="geometry" />
        </mxCell>
      </root>
    </mxGraphModel>
  </diagram>
</mxfile>
